#!OML:ASF H:\ManfredETheater\Project 1\Capture day 1\Session 1\subject.ASF
:FULLY-SPECIFIED
:DEGREES
303
root 0.929366 16.8045 -20.4833 -161.273 0.709317 -183.731
lowerback 6.08349 -0.760457 -0.858582
upperback -2.68056 -0.955318 1.7237
thorax -6.16584 -0.383492 2.38753
lowerneck -13.4059 -0.190291 -0.98648
upperneck 4.86566 -0.0491991 0.157198
head 4.0157 -0.0175177 0.228167
rclavicle 6.75868e-015 2.8625e-014
rhumerus -47.0749 1.32609 -85.471
rradius 58.1344
rwrist -6.6464
rhand -22.5159 -5.79233
rfingers 7.12502
rthumb 3.91058 -35.7362
lclavicle 6.75868e-015 2.8625e-014
lhumerus -47.888 -8.88016 99.886
lradius 68.4084
lwrist 3.0468
lhand -17.7186 1.33903
lfingers 7.12502
lthumb 8.54194 31.1462
rfemur -27.0591 -6.976 16.2192
rtibia 64.343
rfoot -15.6325 5.56294
rtoes -41.3271
lfemur -18.1718 -3.99741 -26.4475
ltibia 50.2294
lfoot -26.9702 -0.572619
ltoes -19.0231
304
root 0.921564 16.7534 -20.6043 -161.395 0.773202 -184.104
lowerback 6.42832 -0.84302 -1.22534
upperback -2.54367 -1.11609 1.62022
thorax -6.20696 -0.45505 2.50971
lowerneck -13.4089 -0.0963827 -0.929584
upperneck 4.73228 0.067365 0.185327
head 3.96754 0.0446778 0.236187
rclavicle 8.54774e-015 -2.38542e-015
rhumerus -47.3562 0.849703 -85.116
rradius 58.1752
rwrist -7.01781
rhand -22.7707 -5.87513
rfingers 7.12502
rthumb 3.66458 -35.8234
lclavicle 8.54774e-015 -2.38542e-015
lhumerus -47.9575 -9.27692 99.9984
lradius 69.5938
lwrist 3.29151
lhand -17.6028 0.960191
lfingers 7.12502
lthumb 8.6537 30.7628
rfemur -28.6987 -7.22204 15.509
rtibia 67.4008
rfoot -13.4604 6.26613
rtoes -41.192
lfemur -17.528 -3.86575 -26.9116
ltibia 50.1713
lfoot -27.0252 -0.756018
ltoes -19.5127
305
root 0.915022 16.6983 -20.7264 -161.534 0.831182 -184.482
lowerback 6.81065 -0.928954 -1.60786
upperback -2.39842 -1.28479 1.51188
thorax -6.25866 -0.529458 2.63849
lowerneck -13.4008 -0.00548624 -0.873312
upperneck 4.56826 0.180179 0.221679
head 3.90637 0.105838 0.246604
rclavicle 5.36719e-015 5.56597e-015
rhumerus -47.6523 0.378999 -84.7761
rradius 58.2036
rwrist -7.3413
rhand -23.0355 -5.9574
rfingers 7.12502
rthumb 3.40883 -35.9099
lclavicle 5.36719e-015 5.56597e-015
lhumerus -47.9583 -9.70722 100.08
lradius 70.8105
lwrist 3.5153
lhand -17.4727 0.47502
lfingers 7.12502
lthumb 8.7792 30.2724
rfemur -30.3917 -7.50922 14.8266
rtibia 70.4296
rfoot -11.766 6.59638
rtoes -41.0824
lfemur -16.8594 -3.72876 -27.3732
ltibia 50.12
lfoot -27.1114 -0.935508
ltoes -19.9725
306
root 0.910008 16.6391 -20.8493 -161.678 0.87317 -184.858
lowerback 7.22516 -1.02062 -2.00028
upperback -2.25023 -1.46398 1.40116
thorax -6.32325 -0.607839 2.77375
lowerneck -13.398 0.0843864 -0.817034
upperneck 4.3913 0.291748 0.267945
head 3.84175 0.167152 0.260086
rclavicle -3.3197e-014 1.98785e-014
rhumerus -47.9681 -0.0890453 -84.4561
rradius 58.2244
rwrist -7.61366
rhand -23.3069 -6.04352
rfingers 7.12502
rthumb 3.14674 -36
lclavicle -3.3197e-014 1.98785e-014
lhumerus -47.8786 -10.1534 100.121
lradius 72.063
lwrist 3.6945
lhand -17.3325 -0.124069
lfingers 7.12502
lthumb 8.91448 29.6676
rfemur -32.1438 -7.85082 14.1929
rtibia 73.4126
rfoot -10.6648 6.52465
rtoes -41.0712
lfemur -16.1864 -3.60216 -27.8207
ltibia 50.0882
lfoot -27.2312 -1.11392
ltoes -20.4013
307
root 0.906708 16.5765 -20.9738 -161.815 0.889535 -185.222
lowerback 7.66133 -1.12006 -2.38809
upperback -2.10254 -1.6548 1.29137
thorax -6.39826 -0.691035 2.91096
lowerneck -13.4082 0.171241 -0.761799
upperneck 4.20834 0.399532 0.326504
head 3.77776 0.227424 0.277458
rclavicle -5.1684e-015 2.70347e-014
rhumerus -48.3077 -0.554587 -84.16
rradius 58.2318
rwrist -7.85222
rhand -23.5894 -6.11406
rfingers 7.12502
rthumb 2.87393 -36.0744
lclavicle -5.1684e-015 2.70347e-014
lhumerus -47.7066 -10.5964 100.113
lradius 73.3571
lwrist 3.82111
lhand -17.196 -0.837442
lfingers 7.12502
lthumb 9.04622 28.9486
rfemur -33.9658 -8.2556 13.6305
rtibia 76.3333
rfoot -10.1529 6.043
rtoes -41.0578
lfemur -15.525 -3.50323 -28.2379
ltibia 50.0847
lfoot -27.3724 -1.28611
ltoes -20.8143
308
root 0.905306 16.5112 -21.1002 -161.931 0.875839 -185.554
lowerback 8.10668 -1.22763 -2.75182
upperback -1.95915 -1.85795 1.18732
thorax -6.48071 -0.781051 3.04435
lowerneck -13.44 0.25858 -0.703931
upperneck 4.0283 0.507583 0.397886
head 3.71917 0.288699 0.298611
rclavicle -2.78299e-015 1.03368e-014
rhumerus -48.6731 -1.02217 -83.8886
rradius 58.2243
rwrist -8.05052
rhand -23.8612 -6.15731
rfingers 7.12502
rthumb 2.61144 -36.1211
lclavicle -2.78299e-015 1.03368e-014
lhumerus -47.4305 -11.0076 100.045
lradius 74.7016
lwrist 3.8784
lhand -17.0581 -1.64342
lfingers 7.12502
lthumb 9.17926 28.1368
rfemur -35.8751 -8.71941 13.1684
rtibia 79.1702
rfoot -10.1384 5.16063
rtoes -41.0506
lfemur -14.8907 -3.44307 -28.6024
ltibia 50.1121
lfoot -27.5274 -1.45776
ltoes -21.1797
309
root 0.906089 16.4441 -21.2288 -162.009 0.826139 -185.851
lowerback 8.54909 -1.35063 -3.08834
upperback -1.82452 -2.07417 1.09128
thorax -6.56816 -0.875001 3.17415
lowerneck -13.5061 0.346692 -0.641118
upperneck 3.86149 0.616052 0.480563
head 3.67213 0.350991 0.322771
rclavicle 2.18663e-015 1.74931e-014
rhumerus -49.0599 -1.49824 -83.6385
rradius 58.1858
rwrist -8.20506
rhand -24.1131 -6.15677
rfingers 7.12502
rthumb 2.36808 -36.1234
lclavicle 2.18663e-015 1.74931e-014
lhumerus -47.0372 -11.3634 99.911
lradius 76.1091
lwrist 3.87691
lhand -16.9224 -2.48608
lfingers 7.12502
lthumb 9.31023 27.2883
rfemur -37.8971 -9.23809 12.8172
rtibia 81.9001
rfoot -10.4658 3.95144
rtoes -41.031
lfemur -14.3007 -3.43546 -28.9072
ltibia 50.1652
lfoot -27.6859 -1.63337
ltoes -21.5067
